<?xml version="1.0" encoding="UTF-8"?>
<svg xmlns="http://www.w3.org/2000/svg" width="133" height="21" viewBox="0 0 133 21" fill="none">
  <path d="M131.921 5.81302C131.613 5.50554 131.206 5.33102 130.766 5.34349C130.433 5.34764 130.063 5.34765 129.677 5.34765H116.883C115.99 5.34765 115.263 6.07479 115.263 6.96814V13.4626H113.364C113.081 13.4626 112.853 13.2341 112.853 12.9515L112.857 6.95153C112.857 6.51524 112.687 6.10388 112.379 5.80056C112.072 5.49723 111.669 5.33102 111.237 5.33102C111.232 5.33102 111.228 5.33102 111.22 5.33102C110.032 5.33933 108.689 5.36011 107.912 5.36842L107.576 5.37258C106.903 5.38089 106.338 5.74238 105.702 6.27839C105.515 6.43629 105.008 6.88088 104.306 7.49169C102.494 9.07063 99.4651 11.7174 98.0606 12.8476C97.6659 13.1676 97.2089 13.4626 96.5565 13.4626H88.6493C88.2961 13.4626 87.9969 13.1717 87.9969 12.8269L87.9886 7.43352C87.9886 7.08033 88.2753 6.78947 88.6244 6.78947H100.496L100.562 6.78532L100.658 6.75208L101.667 5.90859C101.767 5.82548 101.809 5.68421 101.763 5.55956C101.717 5.4349 101.601 5.3518 101.468 5.3518H86.5219C85.6285 5.3518 84.9014 6.07895 84.9014 6.9723V12.9723C84.9014 14.4557 86.1064 15.6607 87.5897 15.6607H96.4568C96.4609 15.6607 96.4609 15.6607 96.4651 15.6607C97.3709 15.6607 98.1105 15.2244 98.5717 14.8587C98.9831 14.5305 105.843 8.66759 107.576 7.18421C107.842 6.95568 108.183 6.83102 108.532 6.83102H109.267C109.545 6.83102 109.77 7.0554 109.77 7.3338L109.778 12.9889C109.778 14.4598 110.975 15.6607 112.45 15.6607L117.249 15.6648C117.54 15.6648 117.814 15.5526 118.018 15.3449C118.225 15.1413 118.338 14.867 118.338 14.5762L118.342 7.30886C118.342 7.02631 118.57 6.79778 118.853 6.79778L128.8 6.79363C128.937 6.79363 129.066 6.84765 129.162 6.94321C129.257 7.03878 129.311 7.16759 129.311 7.30471V9.71468C129.311 9.99723 129.083 10.2258 128.8 10.2258H124.583H124.554C124.151 10.2258 123.81 10.4543 123.644 10.8366C123.465 11.2438 123.54 11.7091 123.822 12.0083L123.835 12.0249C123.856 12.0457 123.86 12.0499 125.372 13.3255C126.44 14.2271 127.907 15.4654 128.011 15.5568L128.111 15.6357H130.113C130.246 15.6357 130.358 15.5568 130.408 15.4321C130.454 15.3075 130.421 15.1745 130.317 15.0789L126.257 11.6676L130.791 11.6842H130.795C131.227 11.6842 131.63 11.518 131.937 11.2105C132.245 10.903 132.415 10.4958 132.415 10.0637V6.95568C132.403 6.5277 132.232 6.1205 131.921 5.81302Z" fill="#020203"></path>
  <path d="M78.3159 10.2258H71.8173C71.6428 10.2258 71.4724 10.2922 71.3436 10.4127L70.5541 11.144C70.4586 11.2313 70.4295 11.3684 70.4752 11.4889C70.5209 11.6094 70.6373 11.6884 70.7702 11.6884H79.5168C81.8021 11.6884 82.2217 10.8366 82.2217 9.1662V7.57063C82.2217 5.6385 81.2328 5.26039 79.5209 5.26039H66.453C65.5472 5.26039 64.8076 6 64.8076 6.90582V13.0097C64.8076 14.518 66.0334 15.7438 67.5417 15.7438H81.9101C82.0846 15.7438 82.2259 15.6025 82.2259 15.428V13.8324C82.2259 13.6579 82.0846 13.5166 81.9101 13.5166H68.4724C68.1816 13.5166 67.9447 13.2798 67.9447 12.9889V7.23822C67.9447 6.94737 68.1816 6.71053 68.4724 6.71053H78.3242C78.6151 6.71053 78.8519 6.94737 78.8519 7.23822V9.6939C78.8436 9.98892 78.6068 10.2258 78.3159 10.2258Z" fill="#020203"></path>
  <path d="M62.2397 13.5208H48.8062C48.5154 13.5208 48.2785 13.2839 48.2785 12.9931V5.70914C48.2785 5.59695 48.2785 5.25624 47.9627 5.25624H45.4281C45.2536 5.25624 45.1123 5.39751 45.1123 5.57202V10.6163L45.1206 13.018C45.1248 14.518 46.3505 15.7438 47.8547 15.7438H62.2397C62.4142 15.7438 62.5555 15.6025 62.5555 15.428V13.8324C62.5555 13.6621 62.4142 13.5208 62.2397 13.5208Z" fill="#020203"></path>
  <path d="M19.0554 0C18.9557 0.00415512 18.8518 0 18.7521 0C18.2493 0 16.5914 0.0623256 16.2632 0.0831012C11.8379 0.386425 7.75761 1.49169 4.57479 3.27009C2.65097 4.34626 1.19252 5.5928 0.253463 6.93075C0.186981 7.02632 0.12465 7.1302 0.0872541 7.24238C0.0332374 7.39197 0 7.55401 0 7.72437C0 8.42243 0.486146 8.99169 1.12604 9.05817C1.13435 9.05817 10.7618 10.0512 11.8379 10.1343C11.8837 10.1385 11.946 10.1468 11.9792 10.1551C12.1288 10.1967 12.241 10.3379 12.241 10.5C12.241 10.662 12.133 10.8033 11.9792 10.8449C11.946 10.8532 11.8837 10.8615 11.8379 10.8657C10.7618 10.9488 1.13435 11.9418 1.12604 11.9418C0.486146 12.0042 0 12.5776 0 13.2756C0 13.4169 0.0207754 13.554 0.0581715 13.6828C0.0997227 13.8283 0.170358 13.9612 0.257616 14.0817C1.19667 15.4155 2.65097 16.6579 4.57064 17.7299C7.75346 19.5083 11.8338 20.6136 16.259 20.9169C16.5873 20.9377 18.2451 21 18.7479 21C18.8227 21 18.8933 21 18.9681 21C19.0388 21 19.1136 21 19.1842 21C19.2382 21 19.2881 21 19.3421 20.9958C30.0083 20.8504 38.572 16.205 38.572 10.5C38.5762 4.741 29.8587 0.0623269 19.0554 0ZM21.5485 18.5859C21.1828 18.5859 19.5457 18.5277 19.1011 18.4861C18.2327 18.4114 17.4017 18.2867 16.6246 18.1122C15.6108 17.8837 14.7299 17.5886 13.9404 17.1981C13.4086 16.9404 12.8186 16.5997 12.4737 16.0679C12.2576 15.7355 12.1994 15.4197 12.3033 15.1039C12.59 14.2147 14.0609 13.5623 14.6801 13.3213C15.7105 12.9224 16.7784 12.6648 17.9709 12.3947C19.0679 12.1454 20.2396 11.9252 21.5402 11.7299C23.2479 11.4723 24.9224 11.2271 26.5969 11.0568C26.8795 11.0152 27.0789 10.7867 27.0831 10.4875C27.0789 10.1967 26.8795 9.96814 26.5886 9.92659C24.9224 9.75623 23.2521 9.51108 21.5402 9.25346C20.2396 9.05817 19.072 8.8421 17.9709 8.58864C16.7825 8.31856 15.7147 8.06094 14.6801 7.66205C14.0609 7.42105 12.59 6.7687 12.3033 5.8795C12.2036 5.56371 12.2576 5.25208 12.4737 4.91551C12.8186 4.38366 13.4086 4.04294 13.9404 3.78532C14.7341 3.39889 15.6108 3.09972 16.6246 2.87119C17.4017 2.69668 18.2368 2.57203 19.1011 2.49723C19.5457 2.45984 21.1828 2.39751 21.5485 2.39751C29.5388 2.39751 36.0415 6.02493 36.0457 10.4834C36.0415 14.9585 29.5388 18.5859 21.5485 18.5859Z" fill="#020203"></path>
</svg>
